# xmcd
#
# Track frame offsets: 
#        150
#        36831
#        77562
#        136651
#        175636
#        239511
#
# Disc length: 3607 seconds
#
# Revision: 6
# Processed by: cddbd v1.5.2PL0 Copyright (c) Steve Scherf et al.
# Submitted via: ExactAudioCopy v0.99pb5
#
DISCID=3f0e1506
DTITLE=Various Artist - Miles From India (2CD2)
DYEAR=2008
DGENRE=Jazz
TTITLE0=So What
TTITLE1=Miles Runs The Voodoo Down
TTITLE2=Blue In Green
TTITLE3=Great Expectations
TTITLE4=Ife (Slow)
TTITLE5=Miles From India
EXTD=
EXTT0=
EXTT1=
EXTT2=
EXTT3=
EXTT4=
EXTT5=
PLAYORDER=
